inDegrees=yes
name=ik_lifting_orientations
DataType=double
version=3
OpenSimVersion=4.5-2024-01-10-34fd6af
endheader
time	pelvis_tilt	pelvis_list	pelvis_rotation	pelvis_tx	pelvis_ty	pelvis_tz	hip_flexion_r	hip_adduction_r	hip_rotation_r	knee_angle_r	knee_angle_r_beta	ankle_angle_r	subtalar_angle_r	mtp_angle_r	hip_flexion_l	hip_adduction_l	hip_rotation_l	knee_angle_l	knee_angle_l_beta	ankle_angle_l	subtalar_angle_l	mtp_angle_l	lumbar_extension	lumbar_bending	lumbar_rotation	arm_flex_r	arm_add_r	arm_rot_r	elbow_flex_r	pro_sup_r	wrist_flex_r	wrist_dev_r	arm_flex_l	arm_add_l	arm_rot_l	elbow_flex_l	pro_sup_l	wrist_flex_l	wrist_dev_l
4.48	0.0004243312056952948	-0.005456569041932111	-90.00039555987128	0	0.9399999998679526	0	44.99649722993551	-10.06440960287344	0	59.99834311926918	1.047168633172532	-5.012733868369987	0	0	44.99649722993551	-10.06440960287344	0	59.99834311926918	1.047168633172532	-5.012733868369987	0	0	-0.007042930294413234	1.17735093059272e-05	0.02800686606905918	0.1685127075077311	8.684333921467076	85.02948978155332	1.02688002444336	1.238973103474088	0	0	0	-12.25765365672806	0	88.78547073754875	1.238973103474088	0	0
4.49	0.002656268449252797	-0.0005257244974865162	-90.00096034532949	0	0.9399999998679526	0	44.9964982951888	-10.06434087558387	0	59.99834354678786	1.047168640634141	-5.012716130776512	0	0	44.9964982951888	-10.06434087558387	0	59.99834354678786	1.047168640634141	-5.012716130776512	0	0	-0.002556706004787652	-0.004019696882247349	0.03083460178439367	0.4435895193022204	8.677660979831284	85.9161474846283	1.236573620191488	1.238711256327255	0	0	0	-12.25807979967394	0	88.78572738009044	1.238711256327255	0	0
4.5	0.009725666565230552	-0.007590665517350006	-90.0019762249489	0	0.9399999998679526	0	44.99649914626118	-10.06428600109749	0	59.99834388832866	1.047168646595152	-5.012701972685097	0	0	44.99649914626118	-10.06428600109749	0	59.99834388832866	1.047168646595152	-5.012701972685097	0	0	-0.005441849033296827	-0.01284876977529511	0.04852190647296487	0.4765596277926434	8.586904469013964	86.80781092472216	1.503934060965476	1.238502047917722	0	0	0	-12.258420278453	0	88.78593243016913	1.238502047917722	0	0
4.51	0.01066532439910256	-0.006122609666162009	-90.0010369000331	0	0.9399999998679526	0	44.99650001335459	-10.06423012130171	0	59.99834423628312	1.047168652668103	-5.012687558679305	0	0	44.99650001335459	-10.06423012130171	0	59.99834423628312	1.047168652668103	-5.012687558679305	0	0	-0.003311557860688324	-0.01364660480845115	0.05463047632796232	0.555696016478368	8.501878672777432	87.59360839219103	1.798115434958389	1.238288893416204	0	0	0	-12.25876718367527	0	88.78614134790574	1.238288893416204	0	0
4.52	0.008086884401802698	-0.001789785696551145	-90.00082268500782	0	0.9399999998679526	0	44.99650091687837	-10.06417192212779	0	59.99834459883346	1.0471686589958	-5.012672550046689	0	0	44.99650091687837	-10.06417192212779	0	59.99834459883346	1.0471686589958	-5.012672550046689	0	0	-0.001046519012453256	-0.01175642960033313	0.06678253475598563	0.6125701709411308	8.415658945392643	88.1548694978667	2.080473015681364	1.238066776372045	0	0	0	-12.2591286780517	0	88.78635905004141	1.238066776372045	0	0
4.53	0.01300349669992406	0.000422704157030558	-90.00757928701388	0	0.9399999998679526	0	44.9965016742474	-10.06412321111561	0	59.99834490297656	1.047168664304099	-5.012659993695849	0	0	44.9965016742474	-10.06412321111561	0	59.99834490297656	1.047168664304099	-5.012659993695849	0	0	0.007140405302820035	-0.03594356131745304	0.1054708166638618	0.8157669791946615	8.188300292316717	88.67594027937045	2.545319590338273	1.237880523085988	0	0	0	-12.25943189025817	0	88.78654160126695	1.237880523085988	0	0
4.54	0.007484749810461339	-0.001816729288495128	-89.99919669405443	0	0.9399999998679526	0	44.99650255829285	-10.06406634894251	0	59.99834525783322	1.047168670497516	-5.01264533788591	0	0	44.99650255829285	-10.06406634894251	0	59.99834525783322	1.047168670497516	-5.01264533788591	0	0	-0.000390097576438548	-0.01311991493703957	0.1597764487376492	0.9370285885336583	8.120814266121343	89.24796081622132	2.795795648870001	1.237663143430647	0	0	0	-12.25978573338536	0	88.78675466017839	1.237663143430647	0	0
